# xmcd
#
# Track frame offsets:
#	183
#	16185
#	31595
#	46000
#	63553
#	76863
#	90845
#	104225
#	117590
#	129495
#	145168
#	161153
#	176203
#	189755
#	204720
#	215615
#
# Disc length: 3079 seconds
#
# Revision: 1
# Processed by: cddbd v1.5.1PL0 Copyright (c) Steve Scherf et al.
# Submitted via: audiograbber 1.83.01
#
DISCID=d80c0510
DTITLE=Various Artist - Going West With The Best
DYEAR=1992
DGENRE=Country
TTITLE0=Billie Jo Spears - Blanket On The Ground
TTITLE1=Jeff Turner - There's Music In The Mountains
TTITLE2=Nashville Fever - Oh, Jack Daniels
TTITLE3=Michelle Wright - The Rhythm Of Romance
TTITLE4=Jimmy Lawton - Cowboy Mad And Guitar Crazy
TTITLE5=Angy Burri and The Apaches - Wolfer Song
TTITLE6=Texas Radio - Like A Boat On The Sea
TTITLE7=Jill Morris - Perfect
TTITLE8=John Brack - Keep Your Hands Away
TTITLE9=Mary Duff - Eighteen Wheels And A Dozen Roses
TTITLE10=Matt Minglewood - Cajun Stars
TTITLE11=Joan Kennedy - Candle In The Window
TTITLE12=Tom Russell Band - Spanish Burgundy
TTITLE13=Britta T. - You Make Me Feel Like A Woman
TTITLE14=The Good Brothers - Live Fast Love Hard Die Young
TTITLE15=George Hug - Friendship
EXTD=
EXTT0=
EXTT1=
EXTT2=
EXTT3=
EXTT4=
EXTT5=
EXTT6=
EXTT7=
EXTT8=
EXTT9=
EXTT10=
EXTT11=
EXTT12=
EXTT13=
EXTT14=
EXTT15=
PLAYORDER=
